<svg xmlns="http://www.w3.org/2000/svg" width="64" height="64" viewBox="0 0 64 64"><g transform="translate(0.54 45.00)"><path d="M8.57 2.38Q6.77 1.21 6.15 0.36Q5.52-0.50 6.65-1.21Q6.90-1.38 7.46-0.94Q8.03-0.50 8.40-0.13Q9.24 0.63 10.47 0.82Q11.71 1 13.25 0.59Q15.01 0.04 16.33-0.94Q17.64-1.92 18.81-3.34Q19.69-4.47 20.03-5.79Q20.36-7.11 20.30-8.24Q20.24-9.37 19.82-9.83Q18.77-11.29 16.91-11.85Q15.05-12.42 12.54-11.75Q12.25-11.71 11.67-11.58Q11.08-11.46 10.62-11.35Q10.16-11.25 10.12-11.25Q9.83-11.16 9.66-11.06Q9.49-10.95 9.26-10.43Q9.03-9.91 8.57-8.59Q8.11-7.28 7.19-4.72Q6.31-2.17 5.79-1.11Q5.27-0.04 4.87-0.15Q4.47-0.25 3.89-1.05Q3.55-1.63 3.47-2.20Q3.39-2.76 3.80-3.51Q4.01-3.89 4.14-4.20Q4.26-4.52 4.47-5.31Q4.68-5.94 5.29-7.51Q5.90-9.07 6.73-11.18Q7.57-13.30 8.49-15.55Q9.41-17.81 10.26-19.82Q11.12-21.83 11.71-23.21Q12.29-24.50 12.42-25.09Q12.54-25.67 12.33-25.71Q12.33-25.92 12.21-26.11Q12.08-26.30 12.13-26.47Q12.13-26.63 12.69-26.93Q13.25-27.22 13.94-27.47Q14.63-27.72 15.01-27.64Q15.22-27.64 15.51-27.66Q15.80-27.68 15.80-27.85Q15.93-27.85 16.60-27.93Q17.27-28.01 18.06-27.93Q20.86-27.68 22.41-26.32Q23.96-24.96 23.92-22.62Q23.87-21.91 23.18-20.70Q22.49-19.48 21.51-18.27Q20.53-17.06 19.61-16.22Q19.07-15.76 18.46-15.28Q17.85-14.80 17.41-14.49Q16.98-14.17 16.98-14.17Q16.98-14.17 17.31-14.05Q17.64-13.92 18.02-13.80Q19.94-13.09 21.20-12Q22.45-10.91 22.91-8.99Q23.08-8.36 22.93-7.44Q22.79-6.52 22.54-5.62Q22.29-4.72 21.99-4.10Q21.70-3.80 21.53-3.49Q21.37-3.18 21.37-3.18Q21.37-3.09 21.03-2.53Q20.70-1.97 20.24-1.30Q19.78-0.63 19.36-0.13Q18.94 0.21 18.38 0.67Q17.81 1.13 17.12 1.55Q16.43 1.97 15.64 2.26Q14.47 2.76 13.11 2.95Q11.75 3.14 10.54 2.99Q9.32 2.84 8.57 2.38M10.62-13.71Q10.62-13.71 11.39-13.86Q12.17-14.01 13.09-14.19Q14.01-14.38 14.42-14.55Q14.63-14.68 15.03-14.88Q15.43-15.09 15.85-15.51Q16.43-16.06 17.33-17.08Q18.23-18.10 19.11-19.25Q19.99-20.40 20.45-21.32Q21.41-22.83 21.49-23.56Q21.57-24.29 21.03-24.84Q20.65-25.30 19.76-25.44Q18.86-25.59 17.85-25.53Q16.85-25.46 16.14-25.25Q15.60-25.09 15.30-24.86Q15.01-24.63 15.01-24.17Q15.01-23.79 14.78-23.44Q14.55-23.08 14.34-22.87Q14.30-22.58 14.13-22.35Q13.96-22.12 13.96-22.12Q13.96-21.95 13.38-20.74Q12.79-19.53 12.21-17.94Q11.46-16.14 11.04-15.03Q10.62-13.92 10.62-13.71" fill="#0a1224"/><path d="M24.54 3.93Q23.29 3.97 23.12 2.59Q22.95 1.21 23.96-0.96Q24.21-1.42 24.46-1.86Q24.71-2.30 24.75-2.59Q24.88-2.84 25.44-3.91Q26.01-4.98 26.82-6.48Q27.64-7.99 28.54-9.62Q29.43-11.25 30.23-12.69Q31.02-14.13 31.57-15.09Q32.11-16.06 32.19-16.14Q32.36-16.10 32.55-16.37Q32.74-16.64 32.78-16.93Q32.86-17.27 33.09-17.64Q33.32-18.02 33.49-18.10Q33.57-18.31 33.72-18.56Q33.87-18.81 33.91-18.98Q33.95-19.15 34.08-19.30Q34.20-19.44 34.24-19.61Q34.58-19.99 35.12-20.80Q35.66-21.62 36.35-22.66Q37.04-23.71 37.73-24.79Q38.42-25.88 39.01-26.84Q39.60-27.80 39.97-28.47Q40.35-29.14 40.39-29.31Q40.51-29.94 41.23-29.81Q41.43-29.98 41.89-29.89Q41.89-29.89 42-29.71Q42.10-29.52 42.40-29.10Q42.69-28.72 42.67-28.35Q42.65-27.97 42.52-27.51Q42.44-26.97 42.23-26.57Q42.02-26.17 41.48-25.48Q40.93-24.79 39.80-23.33Q39.55-22.95 39.28-22.60Q39.01-22.24 38.78-21.97Q38.55-21.70 38.42-21.51Q38.30-21.32 38.30-21.24Q38.26-21.07 38.03-20.76Q37.80-20.45 37.55-19.99Q37.30-19.69 36.88-19.11Q36.46-18.52 36.02-17.90Q35.58-17.27 35.25-16.79Q34.91-16.31 34.91-16.22Q34.87-16.10 34.81-15.93Q34.74-15.76 34.54-15.64Q34.37-15.68 34.31-15.45Q34.24-15.22 34.24-15.22Q34.24-14.88 33.16-13.17Q32.70-12.33 31.80-10.66Q30.90-8.99 29.83-6.96Q28.77-4.93 27.76-2.99Q26.76-1.05 26.07 0.38Q25.38 1.80 25.30 2.26Q25.13 3.22 25 3.53Q24.88 3.85 24.54 3.93" fill="#1e4dd8"/><path d="M44.11 2.38Q42.31 1.21 41.69 0.36Q41.06-0.50 42.19-1.21Q42.44-1.38 43-0.94Q43.57-0.50 43.94-0.13Q44.78 0.63 46.01 0.82Q47.25 1 48.79 0.59Q50.55 0.04 51.87-0.94Q53.18-1.92 54.35-3.34Q55.23-4.47 55.57-5.79Q55.90-7.11 55.84-8.24Q55.78-9.37 55.36-9.83Q54.31-11.29 52.45-11.85Q50.59-12.42 48.08-11.75Q47.79-11.71 47.20-11.58Q46.62-11.46 46.16-11.35Q45.70-11.25 45.66-11.25Q45.36-11.16 45.20-11.06Q45.03-10.95 44.80-10.43Q44.57-9.91 44.11-8.59Q43.65-7.28 42.73-4.72Q41.85-2.17 41.33-1.11Q40.81-0.04 40.41-0.15Q40.01-0.25 39.43-1.05Q39.09-1.63 39.01-2.20Q38.93-2.76 39.34-3.51Q39.55-3.89 39.68-4.20Q39.80-4.52 40.01-5.31Q40.22-5.94 40.83-7.51Q41.43-9.07 42.27-11.18Q43.11-13.30 44.03-15.55Q44.95-17.81 45.80-19.82Q46.66-21.83 47.25-23.21Q47.83-24.50 47.96-25.09Q48.08-25.67 47.87-25.71Q47.87-25.92 47.75-26.11Q47.62-26.30 47.66-26.47Q47.66-26.63 48.23-26.93Q48.79-27.22 49.48-27.47Q50.17-27.72 50.55-27.64Q50.76-27.64 51.05-27.66Q51.34-27.68 51.34-27.85Q51.47-27.85 52.14-27.93Q52.81-28.01 53.60-27.93Q56.40-27.68 57.95-26.32Q59.50-24.96 59.46-22.62Q59.41-21.91 58.72-20.70Q58.03-19.48 57.05-18.27Q56.07-17.06 55.15-16.22Q54.61-15.76 54-15.28Q53.39-14.80 52.95-14.49Q52.51-14.17 52.51-14.17Q52.51-14.17 52.85-14.05Q53.18-13.92 53.56-13.80Q55.48-13.09 56.74-12Q57.99-10.91 58.45-8.99Q58.62-8.36 58.47-7.44Q58.33-6.52 58.08-5.62Q57.82-4.72 57.53-4.10Q57.24-3.80 57.07-3.49Q56.90-3.18 56.90-3.18Q56.90-3.09 56.57-2.53Q56.24-1.97 55.78-1.30Q55.32-0.63 54.90-0.13Q54.48 0.21 53.92 0.67Q53.35 1.13 52.66 1.55Q51.97 1.97 51.18 2.26Q50.01 2.76 48.65 2.95Q47.29 3.14 46.08 2.99Q44.86 2.84 44.11 2.38M46.16-13.71Q46.16-13.71 46.93-13.86Q47.71-14.01 48.63-14.19Q49.55-14.38 49.96-14.55Q50.17-14.68 50.57-14.88Q50.97-15.09 51.39-15.51Q51.97-16.06 52.87-17.08Q53.77-18.10 54.65-19.25Q55.53-20.40 55.98-21.32Q56.95-22.83 57.03-23.56Q57.11-24.29 56.57-24.84Q56.19-25.30 55.30-25.44Q54.40-25.59 53.39-25.53Q52.39-25.46 51.68-25.25Q51.13-25.09 50.84-24.86Q50.55-24.63 50.55-24.17Q50.55-23.79 50.32-23.44Q50.09-23.08 49.88-22.87Q49.84-22.58 49.67-22.35Q49.50-22.12 49.50-22.12Q49.50-21.95 48.92-20.74Q48.33-19.53 47.75-17.94Q47-16.14 46.58-15.03Q46.16-13.92 46.16-13.71" fill="#0a1224"/></g></svg>